<svg height='100px' width='100px'  fill="#000000" xmlns:x="http://ns.adobe.com/Extensibility/1.0/" xmlns:i="http://ns.adobe.com/AdobeIllustrator/10.0/" xmlns:graph="http://ns.adobe.com/Graphs/1.0/" xmlns="http://www.w3.org/2000/svg" xmlns:xlink="http://www.w3.org/1999/xlink" xmlns:a="http://ns.adobe.com/AdobeSVGViewerExtensions/3.0/" version="1.1" x="0px" y="0px" viewBox="0 0 141.73 141.73" enable-background="new 0 0 141.73 141.73" xml:space="preserve"><g><g i:extraneous="self"><path fill="#000000" d="M103.323,80.648l14.643-19.327l-21.14-8.133l6.179-20.669l-21.359,7.57L71.58,21.259L61.447,39.575    l-20.632-7.938l5.817,20.862l-22.868,8.105l15.085,19.817l-9.595,17.343h22.797l16.958,22.276l-6.212-22.276h17.145l-6.787,22.708    l17.203-22.708h22.114L103.323,80.648z M112.508,62.876l-10.954,14.46l-7.661-14.333l1.954-6.537L112.508,62.876z M99.286,80.329    L88.662,94.352h-4.141l7.984-26.708L99.286,80.329z M91.609,58.732l-2.621-4.905l3.666,1.411L91.609,58.732z M97.812,37.978    L93.634,51.96l-7.105-2.733l-3.257-6.095L97.812,37.978z M81.659,47.352l-4.937-1.899l3.297-1.168L81.659,47.352z M71.529,28.399    l6.864,12.843l-6.567,2.327l-7.165-2.757L71.529,28.399z M66.882,45.322l-5.867,2.08l1.979-3.576L66.882,45.322z M45.923,37.257    l13.857,5.332l-3.613,6.531l-6.312,2.237L45.923,37.257z M50.773,54.65l2.903-1.029l-2.121,3.833L50.773,54.65z M29.309,62.257    l18.241-6.465l1.651,5.918l-8.547,15.448L29.309,62.257z M50.507,66.395l7.797,27.957h-4.562L42.911,80.125L50.507,66.395z     M35.04,94.352l6.067-10.966l8.348,10.966H35.04z M60.941,103.81l-4.603-6.047h2.917L60.941,103.81z M61.845,94.352l-8.983-32.213    l5.664-10.237l13.253-4.697l12.34,4.748l6.104,11.419l-9.261,30.979H61.845z M81.823,103.379l1.679-5.615h2.576L81.823,103.379z     M101.055,83.641l5.725,10.711H92.941L101.055,83.641z"></path></g></g></svg>